<mxfile modified="2022-10-26T23:50:32.536Z" host="Electron" agent="5.0 (Windows NT 10.0; Win64; x64) AppleWebKit/537.36 (KHTML, like Gecko) draw.io/20.3.0 Chrome/104.0.5112.114 Electron/20.1.3 Safari/537.36" etag="g7u_rR5FywEDHqIihmlP" compressed="false" version="20.3.0" type="device">
  <diagram id="nCNoAvMeEwzAmbNkH9bl" name="Role Management">
    <mxGraphModel dx="447" dy="294" grid="1" gridSize="10" guides="1" tooltips="1" connect="1" arrows="1" fold="1" page="1" pageScale="1" pageWidth="827" pageHeight="1169" math="0" shadow="0">
      <root>
        <mxCell id="0" />
        <mxCell id="1" parent="0" />
        <mxCell id="0-1PPCgH4e8D_-Riw4C3-1" value="&amp;lt;&amp;lt;actor&amp;gt;&amp;gt;&lt;br&gt;&lt;b&gt;Authorised&lt;br&gt;User&lt;br&gt;&lt;/b&gt;" style="text;html=1;align=center;verticalAlign=middle;dashed=0;fillColor=#ffffff;strokeColor=#000000;" vertex="1" parent="1">
          <mxGeometry x="120" y="240" width="80" height="40" as="geometry" />
        </mxCell>
        <mxCell id="0-1PPCgH4e8D_-Riw4C3-2" value="" style="fontStyle=1;align=left;verticalAlign=top;childLayout=stackLayout;horizontal=1;horizontalStack=0;resizeParent=1;resizeParentMax=0;resizeLast=0;marginBottom=0;" vertex="1" parent="1">
          <mxGeometry x="240" y="120" width="120" height="40" as="geometry" />
        </mxCell>
        <mxCell id="0-1PPCgH4e8D_-Riw4C3-3" value="&lt;p style=&quot;line-height: 0.9;&quot;&gt;List Roles&lt;/p&gt;" style="html=1;align=left;spacingLeft=4;verticalAlign=middle;strokeColor=none;fillColor=none;fontStyle=1;spacingTop=2;" vertex="1" parent="0-1PPCgH4e8D_-Riw4C3-2">
          <mxGeometry width="120" height="20" as="geometry" />
        </mxCell>
        <mxCell id="0-1PPCgH4e8D_-Riw4C3-4" value="" style="shape=ellipse;" vertex="1" parent="0-1PPCgH4e8D_-Riw4C3-3">
          <mxGeometry x="1" width="20" height="10" relative="1" as="geometry">
            <mxPoint x="-25" y="5" as="offset" />
          </mxGeometry>
        </mxCell>
        <mxCell id="0-1PPCgH4e8D_-Riw4C3-5" value="" style="line;strokeWidth=1;fillColor=none;align=left;verticalAlign=middle;spacingTop=-1;spacingLeft=3;spacingRight=3;rotatable=0;labelPosition=right;points=[];portConstraint=eastwest;" vertex="1" parent="0-1PPCgH4e8D_-Riw4C3-2">
          <mxGeometry y="20" width="120" height="8" as="geometry" />
        </mxCell>
        <mxCell id="0-1PPCgH4e8D_-Riw4C3-6" value="Filtered,Sorted,Paged Summaries" style="html=1;align=left;spacingLeft=4;verticalAlign=top;strokeColor=none;fillColor=none;fontSize=8;spacing=-2;" vertex="1" parent="0-1PPCgH4e8D_-Riw4C3-2">
          <mxGeometry y="28" width="120" height="12" as="geometry" />
        </mxCell>
        <mxCell id="0-1PPCgH4e8D_-Riw4C3-7" value="" style="endArrow=open;endFill=1;endSize=12;html=1;strokeColor=#000000;fontSize=12;entryX=0;entryY=1;entryDx=0;entryDy=0;exitX=1;exitY=0.5;exitDx=0;exitDy=0;" edge="1" parent="1" source="0-1PPCgH4e8D_-Riw4C3-1" target="0-1PPCgH4e8D_-Riw4C3-3">
          <mxGeometry width="160" relative="1" as="geometry">
            <mxPoint x="200" y="260" as="sourcePoint" />
            <mxPoint x="250.0000000000001" y="310" as="targetPoint" />
          </mxGeometry>
        </mxCell>
        <mxCell id="0-1PPCgH4e8D_-Riw4C3-34" style="edgeStyle=none;rounded=0;orthogonalLoop=1;jettySize=auto;html=1;entryX=0.5;entryY=0;entryDx=0;entryDy=0;" edge="1" parent="1" source="0-1PPCgH4e8D_-Riw4C3-13" target="0-1PPCgH4e8D_-Riw4C3-19">
          <mxGeometry relative="1" as="geometry" />
        </mxCell>
        <mxCell id="0-1PPCgH4e8D_-Riw4C3-13" value="" style="fontStyle=1;align=left;verticalAlign=top;childLayout=stackLayout;horizontal=1;horizontalStack=0;resizeParent=1;resizeParentMax=0;resizeLast=0;marginBottom=0;" vertex="1" parent="1">
          <mxGeometry x="240" y="200" width="120" height="40" as="geometry" />
        </mxCell>
        <mxCell id="0-1PPCgH4e8D_-Riw4C3-14" value="&lt;p style=&quot;line-height: 0.9;&quot;&gt;View Role&lt;/p&gt;" style="html=1;align=left;spacingLeft=4;verticalAlign=middle;strokeColor=none;fillColor=none;fontStyle=1;spacingTop=2;" vertex="1" parent="0-1PPCgH4e8D_-Riw4C3-13">
          <mxGeometry width="120" height="20" as="geometry" />
        </mxCell>
        <mxCell id="0-1PPCgH4e8D_-Riw4C3-15" value="" style="shape=ellipse;" vertex="1" parent="0-1PPCgH4e8D_-Riw4C3-14">
          <mxGeometry x="1" width="20" height="10" relative="1" as="geometry">
            <mxPoint x="-25" y="5" as="offset" />
          </mxGeometry>
        </mxCell>
        <mxCell id="0-1PPCgH4e8D_-Riw4C3-16" value="" style="line;strokeWidth=1;fillColor=none;align=left;verticalAlign=middle;spacingTop=-1;spacingLeft=3;spacingRight=3;rotatable=0;labelPosition=right;points=[];portConstraint=eastwest;" vertex="1" parent="0-1PPCgH4e8D_-Riw4C3-13">
          <mxGeometry y="20" width="120" height="8" as="geometry" />
        </mxCell>
        <mxCell id="0-1PPCgH4e8D_-Riw4C3-17" value="..." style="html=1;align=left;spacingLeft=4;verticalAlign=top;strokeColor=none;fillColor=none;fontSize=8;spacing=-2;" vertex="1" parent="0-1PPCgH4e8D_-Riw4C3-13">
          <mxGeometry y="28" width="120" height="12" as="geometry" />
        </mxCell>
        <mxCell id="0-1PPCgH4e8D_-Riw4C3-18" value="" style="fontStyle=1;align=left;verticalAlign=top;childLayout=stackLayout;horizontal=1;horizontalStack=0;resizeParent=1;resizeParentMax=0;resizeLast=0;marginBottom=0;" vertex="1" parent="1">
          <mxGeometry x="240" y="280" width="120" height="40" as="geometry" />
        </mxCell>
        <mxCell id="0-1PPCgH4e8D_-Riw4C3-19" value="&lt;p style=&quot;line-height: 0.9;&quot;&gt;Edit Role&lt;/p&gt;" style="html=1;align=left;spacingLeft=4;verticalAlign=middle;strokeColor=none;fillColor=none;fontStyle=1;spacingTop=2;" vertex="1" parent="0-1PPCgH4e8D_-Riw4C3-18">
          <mxGeometry width="120" height="20" as="geometry" />
        </mxCell>
        <mxCell id="0-1PPCgH4e8D_-Riw4C3-20" value="" style="shape=ellipse;" vertex="1" parent="0-1PPCgH4e8D_-Riw4C3-19">
          <mxGeometry x="1" width="20" height="10" relative="1" as="geometry">
            <mxPoint x="-25" y="5" as="offset" />
          </mxGeometry>
        </mxCell>
        <mxCell id="0-1PPCgH4e8D_-Riw4C3-21" value="" style="line;strokeWidth=1;fillColor=none;align=left;verticalAlign=middle;spacingTop=-1;spacingLeft=3;spacingRight=3;rotatable=0;labelPosition=right;points=[];portConstraint=eastwest;" vertex="1" parent="0-1PPCgH4e8D_-Riw4C3-18">
          <mxGeometry y="20" width="120" height="8" as="geometry" />
        </mxCell>
        <mxCell id="0-1PPCgH4e8D_-Riw4C3-22" value="..." style="html=1;align=left;spacingLeft=4;verticalAlign=top;strokeColor=none;fillColor=none;fontSize=8;spacing=-2;" vertex="1" parent="0-1PPCgH4e8D_-Riw4C3-18">
          <mxGeometry y="28" width="120" height="12" as="geometry" />
        </mxCell>
        <mxCell id="0-1PPCgH4e8D_-Riw4C3-23" value="" style="fontStyle=1;align=left;verticalAlign=top;childLayout=stackLayout;horizontal=1;horizontalStack=0;resizeParent=1;resizeParentMax=0;resizeLast=0;marginBottom=0;" vertex="1" parent="1">
          <mxGeometry x="240" y="360" width="120" height="40" as="geometry" />
        </mxCell>
        <mxCell id="0-1PPCgH4e8D_-Riw4C3-24" value="&lt;p style=&quot;line-height: 0.9;&quot;&gt;Change State&lt;/p&gt;" style="html=1;align=left;spacingLeft=4;verticalAlign=middle;strokeColor=none;fillColor=none;fontStyle=1;spacingTop=2;" vertex="1" parent="0-1PPCgH4e8D_-Riw4C3-23">
          <mxGeometry width="120" height="20" as="geometry" />
        </mxCell>
        <mxCell id="0-1PPCgH4e8D_-Riw4C3-25" value="" style="shape=ellipse;" vertex="1" parent="0-1PPCgH4e8D_-Riw4C3-24">
          <mxGeometry x="1" width="20" height="10" relative="1" as="geometry">
            <mxPoint x="-25" y="5" as="offset" />
          </mxGeometry>
        </mxCell>
        <mxCell id="0-1PPCgH4e8D_-Riw4C3-26" value="" style="line;strokeWidth=1;fillColor=none;align=left;verticalAlign=middle;spacingTop=-1;spacingLeft=3;spacingRight=3;rotatable=0;labelPosition=right;points=[];portConstraint=eastwest;" vertex="1" parent="0-1PPCgH4e8D_-Riw4C3-23">
          <mxGeometry y="20" width="120" height="8" as="geometry" />
        </mxCell>
        <mxCell id="0-1PPCgH4e8D_-Riw4C3-27" value="..." style="html=1;align=left;spacingLeft=4;verticalAlign=top;strokeColor=none;fillColor=none;fontSize=8;spacing=-2;" vertex="1" parent="0-1PPCgH4e8D_-Riw4C3-23">
          <mxGeometry y="28" width="120" height="12" as="geometry" />
        </mxCell>
        <mxCell id="0-1PPCgH4e8D_-Riw4C3-28" value="" style="fontStyle=1;align=left;verticalAlign=top;childLayout=stackLayout;horizontal=1;horizontalStack=0;resizeParent=1;resizeParentMax=0;resizeLast=0;marginBottom=0;" vertex="1" parent="1">
          <mxGeometry x="400" y="280" width="120" height="40" as="geometry" />
        </mxCell>
        <mxCell id="0-1PPCgH4e8D_-Riw4C3-29" value="&lt;p style=&quot;line-height: 0.9;&quot;&gt;Add/Remove&lt;br&gt;Permissions&lt;/p&gt;" style="html=1;align=left;spacingLeft=4;verticalAlign=middle;strokeColor=none;fillColor=none;fontStyle=1;spacingTop=2;" vertex="1" parent="0-1PPCgH4e8D_-Riw4C3-28">
          <mxGeometry width="120" height="20" as="geometry" />
        </mxCell>
        <mxCell id="0-1PPCgH4e8D_-Riw4C3-30" value="" style="shape=ellipse;" vertex="1" parent="0-1PPCgH4e8D_-Riw4C3-29">
          <mxGeometry x="1" width="20" height="10" relative="1" as="geometry">
            <mxPoint x="-25" y="5" as="offset" />
          </mxGeometry>
        </mxCell>
        <mxCell id="0-1PPCgH4e8D_-Riw4C3-31" value="" style="line;strokeWidth=1;fillColor=none;align=left;verticalAlign=middle;spacingTop=-1;spacingLeft=3;spacingRight=3;rotatable=0;labelPosition=right;points=[];portConstraint=eastwest;" vertex="1" parent="0-1PPCgH4e8D_-Riw4C3-28">
          <mxGeometry y="20" width="120" height="8" as="geometry" />
        </mxCell>
        <mxCell id="0-1PPCgH4e8D_-Riw4C3-32" value="..." style="html=1;align=left;spacingLeft=4;verticalAlign=top;strokeColor=none;fillColor=none;fontSize=8;spacing=-2;" vertex="1" parent="0-1PPCgH4e8D_-Riw4C3-28">
          <mxGeometry y="28" width="120" height="12" as="geometry" />
        </mxCell>
        <mxCell id="0-1PPCgH4e8D_-Riw4C3-33" style="rounded=0;orthogonalLoop=1;jettySize=auto;html=1;entryX=0;entryY=0.5;entryDx=0;entryDy=0;exitX=1;exitY=1;exitDx=0;exitDy=0;" edge="1" parent="1" source="0-1PPCgH4e8D_-Riw4C3-19" target="0-1PPCgH4e8D_-Riw4C3-28">
          <mxGeometry relative="1" as="geometry" />
        </mxCell>
        <mxCell id="0-1PPCgH4e8D_-Riw4C3-35" style="edgeStyle=none;rounded=0;orthogonalLoop=1;jettySize=auto;html=1;entryX=0.5;entryY=0;entryDx=0;entryDy=0;" edge="1" parent="1" source="0-1PPCgH4e8D_-Riw4C3-6" target="0-1PPCgH4e8D_-Riw4C3-14">
          <mxGeometry relative="1" as="geometry" />
        </mxCell>
        <mxCell id="0-1PPCgH4e8D_-Riw4C3-36" value="is" style="edgeStyle=none;rounded=0;orthogonalLoop=1;jettySize=auto;html=1;entryX=0.5;entryY=1;entryDx=0;entryDy=0;endArrow=block;endFill=0;" edge="1" parent="1" source="0-1PPCgH4e8D_-Riw4C3-24" target="0-1PPCgH4e8D_-Riw4C3-22">
          <mxGeometry relative="1" as="geometry" />
        </mxCell>
        <mxCell id="0-1PPCgH4e8D_-Riw4C3-37" value="" style="endArrow=open;endFill=1;endSize=12;html=1;strokeColor=#000000;fontSize=12;entryX=0;entryY=1;entryDx=0;entryDy=0;exitX=1;exitY=0.5;exitDx=0;exitDy=0;" edge="1" parent="1" source="0-1PPCgH4e8D_-Riw4C3-1" target="0-1PPCgH4e8D_-Riw4C3-24">
          <mxGeometry width="160" relative="1" as="geometry">
            <mxPoint x="210" y="270" as="sourcePoint" />
            <mxPoint x="250" y="150" as="targetPoint" />
          </mxGeometry>
        </mxCell>
        <mxCell id="0-1PPCgH4e8D_-Riw4C3-38" value="" style="endArrow=open;endFill=1;endSize=12;html=1;strokeColor=#000000;fontSize=12;entryX=0;entryY=1;entryDx=0;entryDy=0;exitX=1;exitY=0.5;exitDx=0;exitDy=0;" edge="1" parent="1" source="0-1PPCgH4e8D_-Riw4C3-1" target="0-1PPCgH4e8D_-Riw4C3-19">
          <mxGeometry width="160" relative="1" as="geometry">
            <mxPoint x="220" y="280" as="sourcePoint" />
            <mxPoint x="250" y="390" as="targetPoint" />
          </mxGeometry>
        </mxCell>
        <mxCell id="0-1PPCgH4e8D_-Riw4C3-39" value="" style="endArrow=open;endFill=1;endSize=12;html=1;strokeColor=#000000;fontSize=12;entryX=0;entryY=0.75;entryDx=0;entryDy=0;exitX=1;exitY=0.5;exitDx=0;exitDy=0;" edge="1" parent="1" source="0-1PPCgH4e8D_-Riw4C3-1" target="0-1PPCgH4e8D_-Riw4C3-14">
          <mxGeometry width="160" relative="1" as="geometry">
            <mxPoint x="230" y="290" as="sourcePoint" />
            <mxPoint x="250" y="310" as="targetPoint" />
          </mxGeometry>
        </mxCell>
        <mxCell id="0-1PPCgH4e8D_-Riw4C3-40" value="" style="fontStyle=1;align=left;verticalAlign=top;childLayout=stackLayout;horizontal=1;horizontalStack=0;resizeParent=1;resizeParentMax=0;resizeLast=0;marginBottom=0;" vertex="1" parent="1">
          <mxGeometry x="400" y="200" width="120" height="40" as="geometry" />
        </mxCell>
        <mxCell id="0-1PPCgH4e8D_-Riw4C3-41" value="&lt;p style=&quot;line-height: 0.9;&quot;&gt;View &lt;br&gt;Role Assignments&lt;br&gt;&lt;/p&gt;" style="html=1;align=left;spacingLeft=4;verticalAlign=middle;strokeColor=none;fillColor=none;fontStyle=1;spacingTop=2;" vertex="1" parent="0-1PPCgH4e8D_-Riw4C3-40">
          <mxGeometry width="120" height="20" as="geometry" />
        </mxCell>
        <mxCell id="0-1PPCgH4e8D_-Riw4C3-42" value="" style="shape=ellipse;" vertex="1" parent="0-1PPCgH4e8D_-Riw4C3-41">
          <mxGeometry x="1" width="20" height="10" relative="1" as="geometry">
            <mxPoint x="-25" y="5" as="offset" />
          </mxGeometry>
        </mxCell>
        <mxCell id="0-1PPCgH4e8D_-Riw4C3-43" value="" style="line;strokeWidth=1;fillColor=none;align=left;verticalAlign=middle;spacingTop=-1;spacingLeft=3;spacingRight=3;rotatable=0;labelPosition=right;points=[];portConstraint=eastwest;" vertex="1" parent="0-1PPCgH4e8D_-Riw4C3-40">
          <mxGeometry y="20" width="120" height="8" as="geometry" />
        </mxCell>
        <mxCell id="0-1PPCgH4e8D_-Riw4C3-44" value="Where Role is Used" style="html=1;align=left;spacingLeft=4;verticalAlign=top;strokeColor=none;fillColor=none;fontSize=8;spacing=-2;" vertex="1" parent="0-1PPCgH4e8D_-Riw4C3-40">
          <mxGeometry y="28" width="120" height="12" as="geometry" />
        </mxCell>
        <mxCell id="0-1PPCgH4e8D_-Riw4C3-45" style="edgeStyle=none;rounded=0;orthogonalLoop=1;jettySize=auto;html=1;entryX=0;entryY=0.5;entryDx=0;entryDy=0;endArrow=classic;endFill=1;" edge="1" parent="1" target="0-1PPCgH4e8D_-Riw4C3-40">
          <mxGeometry relative="1" as="geometry">
            <mxPoint x="360" y="220" as="sourcePoint" />
          </mxGeometry>
        </mxCell>
        <mxCell id="0-1PPCgH4e8D_-Riw4C3-46" value="" style="fontStyle=1;align=left;verticalAlign=top;childLayout=stackLayout;horizontal=1;horizontalStack=0;resizeParent=1;resizeParentMax=0;resizeLast=0;marginBottom=0;" vertex="1" parent="1">
          <mxGeometry x="720" y="80" width="120" height="40" as="geometry" />
        </mxCell>
        <mxCell id="0-1PPCgH4e8D_-Riw4C3-47" value="&lt;p style=&quot;line-height: 0.9;&quot;&gt;View&lt;br&gt;Group&lt;br&gt;&lt;/p&gt;" style="html=1;align=left;spacingLeft=4;verticalAlign=middle;strokeColor=none;fillColor=none;fontStyle=1;spacingTop=2;" vertex="1" parent="0-1PPCgH4e8D_-Riw4C3-46">
          <mxGeometry width="120" height="20" as="geometry" />
        </mxCell>
        <mxCell id="0-1PPCgH4e8D_-Riw4C3-48" value="" style="shape=ellipse;" vertex="1" parent="0-1PPCgH4e8D_-Riw4C3-47">
          <mxGeometry x="1" width="20" height="10" relative="1" as="geometry">
            <mxPoint x="-25" y="5" as="offset" />
          </mxGeometry>
        </mxCell>
        <mxCell id="0-1PPCgH4e8D_-Riw4C3-49" value="" style="line;strokeWidth=1;fillColor=none;align=left;verticalAlign=middle;spacingTop=-1;spacingLeft=3;spacingRight=3;rotatable=0;labelPosition=right;points=[];portConstraint=eastwest;" vertex="1" parent="0-1PPCgH4e8D_-Riw4C3-46">
          <mxGeometry y="20" width="120" height="8" as="geometry" />
        </mxCell>
        <mxCell id="0-1PPCgH4e8D_-Riw4C3-50" value="Where Role is Used" style="html=1;align=left;spacingLeft=4;verticalAlign=top;strokeColor=none;fillColor=none;fontSize=8;spacing=-2;" vertex="1" parent="0-1PPCgH4e8D_-Riw4C3-46">
          <mxGeometry y="28" width="120" height="12" as="geometry" />
        </mxCell>
        <mxCell id="0-1PPCgH4e8D_-Riw4C3-51" value="" style="fontStyle=1;align=left;verticalAlign=top;childLayout=stackLayout;horizontal=1;horizontalStack=0;resizeParent=1;resizeParentMax=0;resizeLast=0;marginBottom=0;" vertex="1" parent="1">
          <mxGeometry x="720" y="160" width="120" height="40" as="geometry" />
        </mxCell>
        <mxCell id="0-1PPCgH4e8D_-Riw4C3-52" value="&lt;p style=&quot;line-height: 0.9;&quot;&gt;View &lt;br&gt;Person&lt;br&gt;&lt;/p&gt;" style="html=1;align=left;spacingLeft=4;verticalAlign=middle;strokeColor=none;fillColor=none;fontStyle=1;spacingTop=2;" vertex="1" parent="0-1PPCgH4e8D_-Riw4C3-51">
          <mxGeometry width="120" height="20" as="geometry" />
        </mxCell>
        <mxCell id="0-1PPCgH4e8D_-Riw4C3-53" value="" style="shape=ellipse;" vertex="1" parent="0-1PPCgH4e8D_-Riw4C3-52">
          <mxGeometry x="1" width="20" height="10" relative="1" as="geometry">
            <mxPoint x="-25" y="5" as="offset" />
          </mxGeometry>
        </mxCell>
        <mxCell id="0-1PPCgH4e8D_-Riw4C3-54" value="" style="line;strokeWidth=1;fillColor=none;align=left;verticalAlign=middle;spacingTop=-1;spacingLeft=3;spacingRight=3;rotatable=0;labelPosition=right;points=[];portConstraint=eastwest;" vertex="1" parent="0-1PPCgH4e8D_-Riw4C3-51">
          <mxGeometry y="20" width="120" height="8" as="geometry" />
        </mxCell>
        <mxCell id="0-1PPCgH4e8D_-Riw4C3-55" value="Where Role is Used" style="html=1;align=left;spacingLeft=4;verticalAlign=top;strokeColor=none;fillColor=none;fontSize=8;spacing=-2;" vertex="1" parent="0-1PPCgH4e8D_-Riw4C3-51">
          <mxGeometry y="28" width="120" height="12" as="geometry" />
        </mxCell>
        <mxCell id="0-1PPCgH4e8D_-Riw4C3-56" style="edgeStyle=none;rounded=0;orthogonalLoop=1;jettySize=auto;html=1;entryX=0;entryY=1;entryDx=0;entryDy=0;endArrow=classic;endFill=1;exitX=1;exitY=1;exitDx=0;exitDy=0;" edge="1" parent="1" target="0-1PPCgH4e8D_-Riw4C3-47">
          <mxGeometry relative="1" as="geometry">
            <mxPoint x="680" y="220" as="sourcePoint" />
          </mxGeometry>
        </mxCell>
        <mxCell id="0-1PPCgH4e8D_-Riw4C3-57" style="edgeStyle=none;rounded=0;orthogonalLoop=1;jettySize=auto;html=1;endArrow=classic;endFill=1;exitX=1;exitY=1;exitDx=0;exitDy=0;entryX=0;entryY=1;entryDx=0;entryDy=0;" edge="1" parent="1" target="0-1PPCgH4e8D_-Riw4C3-52">
          <mxGeometry relative="1" as="geometry">
            <mxPoint x="680" y="220" as="sourcePoint" />
            <mxPoint x="720" y="220" as="targetPoint" />
          </mxGeometry>
        </mxCell>
        <mxCell id="0-1PPCgH4e8D_-Riw4C3-58" value="&lt;font style=&quot;font-size: 12px&quot;&gt;&lt;span style=&quot;font-size: 12px&quot;&gt;Diagram: Base System Logical Module -&amp;nbsp;&lt;/span&gt;&lt;span style=&quot;font-size: 12px&quot;&gt;Functionality -&amp;nbsp;&lt;/span&gt;Role Management&lt;/font&gt;" style="text;strokeColor=none;fillColor=none;html=1;fontSize=12;fontStyle=2;verticalAlign=middle;align=left;shadow=0;glass=0;comic=0;opacity=30;fontColor=#808080;" vertex="1" parent="1">
          <mxGeometry x="120" y="420" width="520" height="20" as="geometry" />
        </mxCell>
        <mxCell id="0-1PPCgH4e8D_-Riw4C3-59" value="" style="fontStyle=1;align=left;verticalAlign=top;childLayout=stackLayout;horizontal=1;horizontalStack=0;resizeParent=1;resizeParentMax=0;resizeLast=0;marginBottom=0;" vertex="1" parent="1">
          <mxGeometry x="560" y="200" width="120" height="40" as="geometry" />
        </mxCell>
        <mxCell id="0-1PPCgH4e8D_-Riw4C3-60" value="&lt;p style=&quot;line-height: 0.9;&quot;&gt;View &lt;br&gt;Role Assignment&lt;br&gt;&lt;/p&gt;" style="html=1;align=left;spacingLeft=4;verticalAlign=middle;strokeColor=none;fillColor=none;fontStyle=1;spacingTop=2;" vertex="1" parent="0-1PPCgH4e8D_-Riw4C3-59">
          <mxGeometry width="120" height="20" as="geometry" />
        </mxCell>
        <mxCell id="0-1PPCgH4e8D_-Riw4C3-61" value="" style="shape=ellipse;" vertex="1" parent="0-1PPCgH4e8D_-Riw4C3-60">
          <mxGeometry x="1" width="20" height="10" relative="1" as="geometry">
            <mxPoint x="-25" y="5" as="offset" />
          </mxGeometry>
        </mxCell>
        <mxCell id="0-1PPCgH4e8D_-Riw4C3-62" value="" style="line;strokeWidth=1;fillColor=none;align=left;verticalAlign=middle;spacingTop=-1;spacingLeft=3;spacingRight=3;rotatable=0;labelPosition=right;points=[];portConstraint=eastwest;" vertex="1" parent="0-1PPCgH4e8D_-Riw4C3-59">
          <mxGeometry y="20" width="120" height="8" as="geometry" />
        </mxCell>
        <mxCell id="0-1PPCgH4e8D_-Riw4C3-63" value="Where Role is Used" style="html=1;align=left;spacingLeft=4;verticalAlign=top;strokeColor=none;fillColor=none;fontSize=8;spacing=-2;" vertex="1" parent="0-1PPCgH4e8D_-Riw4C3-59">
          <mxGeometry y="28" width="120" height="12" as="geometry" />
        </mxCell>
        <mxCell id="0-1PPCgH4e8D_-Riw4C3-64" style="edgeStyle=none;rounded=0;orthogonalLoop=1;jettySize=auto;html=1;entryX=0;entryY=0.5;entryDx=0;entryDy=0;endArrow=classic;endFill=1;" edge="1" parent="1" target="0-1PPCgH4e8D_-Riw4C3-59">
          <mxGeometry relative="1" as="geometry">
            <mxPoint x="520" y="220" as="sourcePoint" />
          </mxGeometry>
        </mxCell>
        <mxCell id="0-1PPCgH4e8D_-Riw4C3-66" value="custom variations&lt;br&gt;to role" style="edgeStyle=none;rounded=0;orthogonalLoop=1;jettySize=auto;html=1;entryX=1;entryY=1;entryDx=0;entryDy=0;endArrow=classic;endFill=1;" edge="1" parent="1" source="0-1PPCgH4e8D_-Riw4C3-63" target="0-1PPCgH4e8D_-Riw4C3-29">
          <mxGeometry x="-0.5" relative="1" as="geometry">
            <Array as="points">
              <mxPoint x="620" y="300" />
            </Array>
            <mxPoint as="offset" />
          </mxGeometry>
        </mxCell>
        <mxCell id="0-1PPCgH4e8D_-Riw4C3-68" value="&lt;p style=&quot;line-height: 1;&quot;&gt;Roles can be Typed as being relative to Groups &lt;br&gt;(generally matching RASCI to a high level)&lt;br&gt;or Resources (Owner, Collaborator, Reviewer, Approver, Maintainer, etc.) or Resource Collections (which require similar roles to Groups).&lt;/p&gt;" style="shape=note;whiteSpace=wrap;html=1;size=14;verticalAlign=top;align=left;spacingTop=-13;strokeWidth=1;fillColor=none;fontSize=12;" vertex="1" parent="1">
          <mxGeometry x="400" y="120" width="280" height="70" as="geometry" />
        </mxCell>
        <mxCell id="0-1PPCgH4e8D_-Riw4C3-69" value="" style="fontStyle=1;align=left;verticalAlign=top;childLayout=stackLayout;horizontal=1;horizontalStack=0;resizeParent=1;resizeParentMax=0;resizeLast=0;marginBottom=0;" vertex="1" parent="1">
          <mxGeometry x="720" y="240" width="120" height="40" as="geometry" />
        </mxCell>
        <mxCell id="0-1PPCgH4e8D_-Riw4C3-70" value="&lt;p style=&quot;line-height: 0.9;&quot;&gt;View &lt;br&gt;Collection&lt;br&gt;&lt;/p&gt;" style="html=1;align=left;spacingLeft=4;verticalAlign=middle;strokeColor=none;fillColor=none;fontStyle=1;spacingTop=2;" vertex="1" parent="0-1PPCgH4e8D_-Riw4C3-69">
          <mxGeometry width="120" height="20" as="geometry" />
        </mxCell>
        <mxCell id="0-1PPCgH4e8D_-Riw4C3-71" value="" style="shape=ellipse;" vertex="1" parent="0-1PPCgH4e8D_-Riw4C3-70">
          <mxGeometry x="1" width="20" height="10" relative="1" as="geometry">
            <mxPoint x="-25" y="5" as="offset" />
          </mxGeometry>
        </mxCell>
        <mxCell id="0-1PPCgH4e8D_-Riw4C3-72" value="" style="line;strokeWidth=1;fillColor=none;align=left;verticalAlign=middle;spacingTop=-1;spacingLeft=3;spacingRight=3;rotatable=0;labelPosition=right;points=[];portConstraint=eastwest;" vertex="1" parent="0-1PPCgH4e8D_-Riw4C3-69">
          <mxGeometry y="20" width="120" height="8" as="geometry" />
        </mxCell>
        <mxCell id="0-1PPCgH4e8D_-Riw4C3-73" value="Where Role is Used" style="html=1;align=left;spacingLeft=4;verticalAlign=top;strokeColor=none;fillColor=none;fontSize=8;spacing=-2;" vertex="1" parent="0-1PPCgH4e8D_-Riw4C3-69">
          <mxGeometry y="28" width="120" height="12" as="geometry" />
        </mxCell>
        <mxCell id="0-1PPCgH4e8D_-Riw4C3-74" style="edgeStyle=none;rounded=0;orthogonalLoop=1;jettySize=auto;html=1;exitX=1;exitY=1;exitDx=0;exitDy=0;entryX=0;entryY=1;entryDx=0;entryDy=0;endArrow=classic;endFill=1;" edge="1" parent="1" source="0-1PPCgH4e8D_-Riw4C3-60" target="0-1PPCgH4e8D_-Riw4C3-70">
          <mxGeometry relative="1" as="geometry" />
        </mxCell>
        <mxCell id="0-1PPCgH4e8D_-Riw4C3-75" value="" style="fontStyle=1;align=left;verticalAlign=top;childLayout=stackLayout;horizontal=1;horizontalStack=0;resizeParent=1;resizeParentMax=0;resizeLast=0;marginBottom=0;" vertex="1" parent="1">
          <mxGeometry x="720" y="320" width="120" height="40" as="geometry" />
        </mxCell>
        <mxCell id="0-1PPCgH4e8D_-Riw4C3-76" value="&lt;p style=&quot;line-height: 0.9;&quot;&gt;View &lt;br&gt;Resource&lt;br&gt;&lt;/p&gt;" style="html=1;align=left;spacingLeft=4;verticalAlign=middle;strokeColor=none;fillColor=none;fontStyle=1;spacingTop=2;" vertex="1" parent="0-1PPCgH4e8D_-Riw4C3-75">
          <mxGeometry width="120" height="20" as="geometry" />
        </mxCell>
        <mxCell id="0-1PPCgH4e8D_-Riw4C3-77" value="" style="shape=ellipse;" vertex="1" parent="0-1PPCgH4e8D_-Riw4C3-76">
          <mxGeometry x="1" width="20" height="10" relative="1" as="geometry">
            <mxPoint x="-25" y="5" as="offset" />
          </mxGeometry>
        </mxCell>
        <mxCell id="0-1PPCgH4e8D_-Riw4C3-78" value="" style="line;strokeWidth=1;fillColor=none;align=left;verticalAlign=middle;spacingTop=-1;spacingLeft=3;spacingRight=3;rotatable=0;labelPosition=right;points=[];portConstraint=eastwest;" vertex="1" parent="0-1PPCgH4e8D_-Riw4C3-75">
          <mxGeometry y="20" width="120" height="8" as="geometry" />
        </mxCell>
        <mxCell id="0-1PPCgH4e8D_-Riw4C3-79" value="Where Role is Used" style="html=1;align=left;spacingLeft=4;verticalAlign=top;strokeColor=none;fillColor=none;fontSize=8;spacing=-2;" vertex="1" parent="0-1PPCgH4e8D_-Riw4C3-75">
          <mxGeometry y="28" width="120" height="12" as="geometry" />
        </mxCell>
        <mxCell id="0-1PPCgH4e8D_-Riw4C3-80" style="edgeStyle=none;rounded=0;orthogonalLoop=1;jettySize=auto;html=1;exitX=1;exitY=1;exitDx=0;exitDy=0;entryX=0;entryY=1;entryDx=0;entryDy=0;endArrow=classic;endFill=1;" edge="1" parent="1" source="0-1PPCgH4e8D_-Riw4C3-60" target="0-1PPCgH4e8D_-Riw4C3-76">
          <mxGeometry relative="1" as="geometry" />
        </mxCell>
        <mxCell id="0-1PPCgH4e8D_-Riw4C3-81" style="edgeStyle=none;rounded=0;orthogonalLoop=1;jettySize=auto;html=1;entryX=0.5;entryY=0;entryDx=0;entryDy=0;endArrow=classic;endFill=1;dashed=1;" edge="1" parent="1" source="0-1PPCgH4e8D_-Riw4C3-73" target="0-1PPCgH4e8D_-Riw4C3-76">
          <mxGeometry relative="1" as="geometry" />
        </mxCell>
        <mxCell id="0-1PPCgH4e8D_-Riw4C3-82" style="edgeStyle=none;rounded=0;orthogonalLoop=1;jettySize=auto;html=1;entryX=0.5;entryY=0;entryDx=0;entryDy=0;endArrow=classic;endFill=1;dashed=1;" edge="1" parent="1" source="0-1PPCgH4e8D_-Riw4C3-50" target="0-1PPCgH4e8D_-Riw4C3-52">
          <mxGeometry relative="1" as="geometry" />
        </mxCell>
        <mxCell id="0-1PPCgH4e8D_-Riw4C3-83" value="&lt;p style=&quot;line-height: 1;&quot;&gt;Warning: &lt;br&gt;it is a common in the industry -- but limiting -- to develop a separate system of &lt;i&gt;System&lt;/i&gt; Roles, as oppossed to developing Roles for a System &lt;i&gt;Group&lt;/i&gt; (to which all Users belong to).&lt;/p&gt;" style="shape=note;whiteSpace=wrap;html=1;size=14;verticalAlign=top;align=left;spacingTop=-13;strokeWidth=1;fillColor=none;fontSize=12;" vertex="1" parent="1">
          <mxGeometry x="400" y="330" width="280" height="70" as="geometry" />
        </mxCell>
      </root>
    </mxGraphModel>
  </diagram>
</mxfile>
